# xmcd
#
# Track frame offsets:
#	150
#	9943
#	20181
#	30591
#	42101
#	54341
#	66984
#	81758
#	92205
#	105002
#	117232
#	134309
#	146127
#	162035
#	177288
#	185636
#	195811
#
# Disc length: 2746 seconds
#
# Revision: 0
# Processed by: cddbd v1.5.1PL0 Copyright (c) Steve Scherf et al.
# Submitted via: audiograbber 1.83.01
#
DISCID=d60ab811
DTITLE=Various Artist - Truck Driving Songs CD 2
DYEAR=1980
DGENRE=Country
TTITLE0=Truck Driving Son Of A Gun - 01 - Dave Dudley
TTITLE1=The Bridge Washed Out - 02 - Warner Mack
TTITLE2=The Road Is Far - 03 - Lee Conway
TTITLE3=Before The Next Teardrop Falls - 04 - Freddy Fender
TTITLE4=High Noon (Do Not Forsake Me) - 05 - Frankie Lane
TTITLE5=The Auctioneer - 06 - Leroy Van Dyke
TTITLE6=The Harper Valley PTA - 07 - Jeannie C Riley
TTITLE7=Abilene - 08 - George Hamilton IV
TTITLE8=Wolverton Mountain - 09 - Claude King
TTITLE9=I Walk The Line - 10 - Johnny Cash
TTITLE10=For The Good Times - 11 - Ray Price
TTITLE11=The End Of The World - 12 - Skeeter Davis
TTITLE12=Lookin' For Love - 13 - Johnny Lee
TTITLE13=Lament Of The Cherokee Reservation Indian - 14 - Don Fardon
TTITLE14=Jole Blon - 15 - Waylon Jennings
TTITLE15=The Race Is On - 16 -  George Jones
TTITLE16=Healing Hands Of Time - 17 - Willie Nelson
EXTD=
EXTT0=
EXTT1=
EXTT2=
EXTT3=
EXTT4=
EXTT5=
EXTT6=
EXTT7=
EXTT8=
EXTT9=
EXTT10=
EXTT11=
EXTT12=
EXTT13=
EXTT14=
EXTT15=
EXTT16=
PLAYORDER=
